<svg width="399" height="124" viewBox="0 0 399 124" fill="none" xmlns="http://www.w3.org/2000/svg">
<path fill-rule="evenodd" clip-rule="evenodd" d="M71.3993 108.24C80.5121 99.0116 90.9678 84.2166 92.8643 70.7255C96.4825 44.9717 80.4086 34.669 69.7747 32.6378C59.2635 30.63 50.5395 34.6175 44.9109 43.9681C44.3125 44.9622 43.3481 45.6978 42.2107 45.9266L39.3167 46.5089C39.063 46.5307 38.8032 46.606 38.5492 46.7129C37.1271 47.3119 36.6899 48.9547 36.9618 50.5481C36.9967 50.7525 37.026 50.9352 37.0526 51.1003C37.2328 52.2218 37.2821 52.5283 38.0412 53.2874C38.912 54.1582 49.9328 56.2374 49.9328 56.2374C55.0836 56.9605 56.7963 60.2768 56.1772 64.674C55.5606 69.0712 47.8817 77.0428 36.5916 75.5007C23.4984 73.7124 14.709 60.5776 16.7268 46.6951C19.1289 30.1692 34.0314 22.6154 44.5841 24.0972C47.3396 24.4846 49.7487 24.9607 51.9465 25.3951L51.9466 25.3951C59.0624 26.8015 63.9645 27.7704 71.2438 23.8739C71.7893 23.5821 71.7715 22.7904 71.2159 22.5164C50.6864 12.4255 47.3498 10.5301 43.9904 1.08873C43.8356 0.654849 43.3282 0.449326 42.9197 0.664999C37.6595 3.42596 36.0523 7.36797 34.5262 11.111C33.1085 14.5881 31.7608 17.8935 27.6196 19.9207C18.2645 24.4981 4.20268 34.3073 0.990431 57.1737C-1.05719 71.7455 5.75354 99.7887 36.8428 107.435C40.4169 108.315 43.8961 108.736 47.2567 108.764C48.5136 112.546 48.9248 117.674 48.4269 122.039C48.307 123.09 49.3623 123.92 50.3031 123.437C54.4835 121.291 63.6462 116.091 71.3993 108.24ZM67.7081 42.7127C69.7351 42.9976 71.1379 44.9393 70.8413 47.0496C70.5447 49.16 68.661 50.6398 66.634 50.3549C64.607 50.07 63.2043 48.1283 63.5008 46.018C63.7974 43.9077 65.6811 42.4278 67.7081 42.7127Z" fill="#E64F4B"/>
<path d="M143.754 110.46C157.674 110.46 166.465 102.808 166.465 89.9465V48.7566H154.743V54.0478H153.929C150.673 49.9776 146.359 47.5355 140.335 47.5355C128.776 47.5355 120.717 56.1642 120.717 69.5957C120.717 82.4574 128.857 91.0047 140.416 91.0047C146.033 91.0047 150.266 88.8068 153.604 84.9809H154.418V89.6209C154.418 96.4587 150.103 100.854 143.428 100.854C138.218 100.854 134.392 98.0868 132.846 93.5282L121.205 95.8075C123.24 105.169 131.625 110.46 143.754 110.46ZM143.835 81.1549C137.404 81.1549 132.764 76.2708 132.764 69.5957C132.764 62.7579 137.404 57.7923 143.835 57.7923C150.266 57.7923 154.825 62.7579 154.825 69.5957C154.825 76.2708 150.266 81.1549 143.835 81.1549Z" fill="#F0F1F8"/>
<path d="M187.007 91.4931C192.949 91.4931 197.752 89.2952 200.357 85.1437H201.171V90.4349H213.219V62.9207C213.219 53.4779 205.648 47.4541 193.763 47.4541C182.041 47.4541 174.471 53.3151 174.471 62.4323H186.274C186.193 58.2807 189.205 55.8386 193.6 55.8386C198.403 55.8386 201.171 58.5249 201.171 62.5137V64.2231L192.298 65.2814C179.192 66.9094 172.598 71.7122 172.598 79.5269C172.598 87.016 178.459 91.4931 187.007 91.4931ZM190.996 83.597C186.844 83.597 184.402 81.6434 184.402 78.5501C184.402 75.701 186.681 73.3403 192.624 72.6076L201.171 71.5494V74.4799C201.171 79.6897 197.019 83.597 190.996 83.597Z" fill="#F0F1F8"/>
<path d="M221.462 90.4349H233.509V69.1073C233.509 62.6765 237.091 58.2807 242.382 58.2807C244.092 58.2807 246.86 58.7691 249.22 59.8274V49.0008C247.918 48.3496 246.208 47.9426 244.499 47.9426C240.103 47.9426 236.033 50.5474 234.242 54.4548H233.347V48.7566H221.462V90.4349Z" fill="#F0F1F8"/>
<path d="M255.238 90.4349H267.285V66.9908C267.285 61.6996 271.274 57.8737 276.077 57.8737C280.961 57.8737 283.892 61.4554 283.892 66.5838V90.4349H295.939V64.8744C295.939 54.8618 289.671 47.5355 280.228 47.5355C275.181 47.5355 271.193 49.8962 268.099 54.6176H267.285V48.7566H255.238V90.4349Z" fill="#F0F1F8"/>
<path d="M325.362 91.7373C335.456 91.7373 343.515 87.1788 346.12 79.6897L335.863 77.0848C334.072 80.5037 330.49 82.783 325.85 82.783C319.908 82.783 315.756 78.9571 314.779 73.0961H347.503C347.666 72.2006 347.666 70.4912 347.666 69.4329C347.666 56.3271 338.549 47.4541 325.28 47.4541C311.849 47.4541 302.325 56.2457 302.325 69.2701C302.325 82.7016 311.849 91.7373 325.362 91.7373ZM314.698 65.607C315.675 60.0716 319.501 56.4085 324.955 56.4085C330.572 56.4085 334.642 60.3158 335.374 65.607H314.698Z" fill="#F0F1F8"/>
<path d="M370.645 91.7373C373.005 91.7373 376.424 91.2489 378.785 90.4349V81.8062C377.401 82.1318 375.61 82.376 374.471 82.376C371.052 82.376 368.935 80.0153 368.935 76.515V57.5481H378.459V48.7566H368.935L369.017 35.5693H359.574L357.213 48.7566H351.027V57.5481H356.888V77.0034C356.888 85.7949 362.26 91.7373 370.645 91.7373Z" fill="#F0F1F8"/>
</svg>
